<svg width="20" height="20" viewBox="0 0 20 20" fill="none" xmlns="http://www.w3.org/2000/svg">
<g filter="url(#filter0_g_1911_14185)">
<path d="M10.6298 6.39329C11.9314 5.92159 13.0236 5.41073 14.4387 5.75717C20.8743 7.33084 17.7348 18.8965 11.7768 18.0842C11.2248 18.0098 10.4223 17.5362 9.99171 17.5166C9.5846 17.499 8.65684 18.047 8.04029 18.1097C2.56574 18.6636 -0.710765 8.14703 4.96734 5.95682C6.66432 5.30308 7.86805 5.75717 9.45737 6.39525V2.83102C9.45737 2.34953 10.6298 2.3828 10.6298 2.92889V6.39525V6.39329Z" fill="#FFA17D"/>
<path d="M11.3262 4.72176C11.6863 2.09116 13.7219 0.486177 16.4112 1.1497C16.7831 1.24169 17.1256 1.22408 17.0376 1.70753C16.4817 4.72763 14.0586 5.43226 11.3262 4.72176Z" fill="#CEE6AB"/>
</g>
<defs>
<filter id="filter0_g_1911_14185" x="1.88" y="0.88" width="16.24" height="17.3707" filterUnits="userSpaceOnUse" color-interpolation-filters="sRGB">
<feFlood flood-opacity="0" result="BackgroundImageFix"/>
<feBlend mode="normal" in="SourceGraphic" in2="BackgroundImageFix" result="shape"/>
<feTurbulence type="fractalNoise" baseFrequency="0.8474576473236084 0.8474576473236084" numOctaves="3" seed="7826" />
<feDisplacementMap in="shape" scale="0.23999999463558197" xChannelSelector="R" yChannelSelector="G" result="displacedImage" width="100%" height="100%" />
<feMerge result="effect1_texture_1911_14185">
<feMergeNode in="displacedImage"/>
</feMerge>
</filter>
</defs>
</svg>
