<svg width="32" height="32" viewBox="0 0 32 32" fill="none" xmlns="http://www.w3.org/2000/svg">
<g filter="url(#filter0_g_425_15738)">
<path fill-rule="evenodd" clip-rule="evenodd" d="M15.1711 5.73684C15.1711 6.19748 15.354 6.63925 15.6798 6.96498C16.0055 7.2907 16.4473 7.47368 16.9079 7.47368H20.8204L15.6794 12.6147C15.4367 12.8577 15.2715 13.1671 15.2047 13.504C15.1378 13.8408 15.1723 14.1899 15.3038 14.5071C15.4352 14.8243 15.6578 15.0955 15.9433 15.2862C16.2288 15.477 16.5645 15.5789 16.9079 15.5789H25.0132C25.2412 15.5789 25.4671 15.534 25.6778 15.4467C25.8885 15.3595 26.08 15.2315 26.2413 15.0702C26.4026 14.909 26.5305 14.7175 26.6178 14.5068C26.7051 14.296 26.75 14.0702 26.75 13.8421C26.75 13.614 26.7051 13.3882 26.6178 13.1774C26.5305 12.9667 26.4026 12.7753 26.2413 12.614C26.08 12.4527 25.8885 12.3248 25.6778 12.2375C25.4671 12.1502 25.2412 12.1053 25.0132 12.1053H21.1006L26.2417 6.96421C26.4843 6.72125 26.6495 6.4118 26.7164 6.07498C26.7833 5.73816 26.7488 5.38908 26.6173 5.07185C26.4858 4.75463 26.2632 4.48349 25.9777 4.29271C25.6922 4.10194 25.3565 4.00007 25.0132 4H16.9079C16.4473 4 16.0055 4.18299 15.6798 4.50871C15.354 4.83443 15.1711 5.2762 15.1711 5.73684ZM6.48684 13.2632C6.0262 13.2632 5.58443 13.0802 5.25871 12.7544C4.93299 12.4287 4.75 11.987 4.75 11.5263C4.75 11.0657 4.93299 10.6239 5.25871 10.2982C5.58443 9.97246 6.0262 9.78947 6.48684 9.78947H12.2763C12.6196 9.78978 12.9551 9.8918 13.2405 10.0827C13.5258 10.2735 13.7482 10.5447 13.8795 10.8619C14.0108 11.179 14.0452 11.528 13.9783 11.8647C13.9115 12.2014 13.7463 12.5108 13.5037 12.7537L10.6807 15.5789H12.2763C12.737 15.5789 13.1787 15.7619 13.5044 16.0877C13.8302 16.4134 14.0132 16.8552 14.0132 17.3158C14.0132 17.7764 13.8302 18.2182 13.5044 18.5439C13.1787 18.8696 12.737 19.0526 12.2763 19.0526H6.48684C6.14355 19.0523 5.80805 18.9503 5.5227 18.7594C5.23736 18.5686 5.01498 18.2974 4.88365 17.9802C4.75232 17.6631 4.71793 17.3141 4.78482 16.9774C4.85171 16.6407 5.01688 16.3313 5.25947 16.0884L8.08358 13.2632H6.48684ZM15.75 21.3684C15.2894 21.3684 14.8476 21.1854 14.5219 20.8597C14.1961 20.534 14.0132 20.0922 14.0132 19.6316C14.0132 19.1709 14.1961 18.7292 14.5219 18.4034C14.8476 18.0777 15.2894 17.8947 15.75 17.8947H20.3816C20.7249 17.895 21.0604 17.9971 21.3457 18.1879C21.6311 18.3788 21.8534 18.6499 21.9848 18.9671C22.1161 19.2843 22.1505 19.6333 22.0836 19.97C22.0167 20.3067 21.8515 20.6161 21.6089 20.8589L19.9427 22.5263H20.3816C20.8422 22.5263 21.284 22.7093 21.6097 23.035C21.9354 23.3607 22.1184 23.8025 22.1184 24.2632C22.1184 24.7238 21.9354 25.1656 21.6097 25.4913C21.284 25.817 20.8422 26 20.3816 26H15.75C15.4067 25.9997 15.0712 25.8977 14.7859 25.7068C14.5005 25.5159 14.2781 25.2448 14.1468 24.9276C14.0155 24.6104 13.9811 24.2614 14.048 23.9247C14.1149 23.588 14.28 23.2787 14.5226 23.0358L16.1888 21.3684H15.75Z" fill="#FF8253"/>
</g>
<defs>
<filter id="filter0_g_425_15738" x="4.35" y="3.6" width="22.8" height="22.8" filterUnits="userSpaceOnUse" color-interpolation-filters="sRGB">
<feFlood flood-opacity="0" result="BackgroundImageFix"/>
<feBlend mode="normal" in="SourceGraphic" in2="BackgroundImageFix" result="shape"/>
<feTurbulence type="fractalNoise" baseFrequency="0.25 0.25" numOctaves="3" seed="7058" />
<feDisplacementMap in="shape" scale="0.80000001192092896" xChannelSelector="R" yChannelSelector="G" result="displacedImage" width="100%" height="100%" />
<feMerge result="effect1_texture_425_15738">
<feMergeNode in="displacedImage"/>
</feMerge>
</filter>
</defs>
</svg>
