<svg width="54" height="54" viewBox="0 0 54 54" fill="none" xmlns="http://www.w3.org/2000/svg">
<g clip-path="url(#clip0_1759_565)">
<g filter="url(#filter0_g_1759_565)">
<path d="M25.9337 41.3669C25.8522 41.5722 25.6385 41.6931 25.4219 41.6594C23.9203 41.4428 22.6774 40.4502 21.0915 40.0959C14.6379 38.6505 6.79531 40.7989 2.51828 33.9236C-4.21082 23.103 8.83118 12.5271 18.78 20.755C23.0936 24.3206 23.0092 28.6848 25.5766 32.7988C26.5383 34.3369 29.2041 35.5517 29.3531 36.6315C29.4206 37.1152 27.7137 37.7366 26.7717 39.2804L25.9309 41.3669H25.9337Z" fill="#F1C58D"/>
<path d="M28.1242 41.9181C27.8121 41.6987 27.5815 41.575 27.4915 41.395C27.2947 41.0098 27.3565 40.7398 27.5393 40.2252C27.7221 39.7106 28.7456 38.3271 29.3221 38.3271C30.1066 38.3271 33.0508 41.1448 34.1728 41.3753C35.5507 41.6594 39.285 39.3929 39.0432 42.9641C38.8885 45.2446 36.8132 44.4235 36.338 45.3599C36.0062 46.0123 36.9201 46.7209 36.0681 47.8823C35.4044 48.7878 34.5468 48.9115 33.5851 48.4138C31.8135 47.4914 33.0508 45.883 32.3 44.6373C31.7713 43.7599 28.5854 42.2386 28.1242 41.9153V41.9181Z" fill="#EEE7E1"/>
<path d="M51.349 20.3961L46.3549 35.9689C46.2592 36.2698 46.0034 36.4919 45.6912 36.5482H45.6715C45.5675 36.5707 45.4635 36.5678 45.3594 36.5482C41.2174 35.7327 36.4088 35.862 32.3624 34.9594C32.2668 34.9369 32.1684 34.9228 32.0728 34.906C31.6988 34.8357 31.4232 34.5179 31.3895 34.1411L30.0031 17.6741C29.9638 17.2157 30.2984 16.808 30.7539 16.7546C30.9648 16.7293 31.1673 16.7039 31.3445 16.7321C33.296 17.047 33.2763 19.7887 35.4837 20.2667C37.6911 20.7448 42.8624 21.4309 44.9489 21.4028C47.0354 21.3747 47.9718 19.2994 49.0094 19.1279C49.4874 19.0492 50.1004 19.1841 50.6909 19.2938C51.1971 19.3866 51.5036 19.904 51.3461 20.3933L51.349 20.3961Z" fill="#FFA17D"/>
<path d="M36.2467 19.1285L36.1426 18.9401C36.1117 18.8867 36.0977 18.822 36.0977 18.7574L36.3198 8.66231C36.3254 8.4486 36.5054 8.28832 36.6966 8.3305L38.7353 8.78885C38.8534 8.81416 38.9462 8.9182 38.9687 9.04755L39.1458 10.0458C39.1655 10.1639 39.2415 10.2567 39.3427 10.2961C39.9023 10.5014 40.909 10.836 41.0777 11.4406C41.0889 11.4856 41.0889 11.5334 41.0833 11.5812C40.6953 14.126 40.6081 16.744 40.2875 19.2888C40.2538 19.5531 40.2369 19.5785 40.0091 19.7219L36.4688 19.286C36.376 19.2748 36.2945 19.2185 36.2467 19.1313V19.1285Z" fill="#FBE4BB"/>
<path d="M50.5621 17.8661C49.2545 17.5737 48.4643 18.0039 47.5954 18.6254C47.2608 18.8644 46.8249 18.5101 46.9824 18.1305L49.5132 12.11C49.6004 11.9019 49.8394 11.8035 50.0475 11.8907L52.4124 12.8664C52.6176 12.9508 52.7189 13.1842 52.6402 13.3894L51.0373 17.6159C50.9642 17.8071 50.7617 17.9139 50.5621 17.8689V17.8661Z" fill="#FBE4BB"/>
<path d="M34.1363 17.5674L33.0172 16.2064C32.989 16.1727 32.9497 16.1474 32.9075 16.1333L30.9897 15.554C30.9025 15.5287 30.8407 15.4528 30.8322 15.3656L30.2642 10.515C30.2502 10.394 30.3345 10.2816 30.4554 10.2647L32.7022 9.95256C32.84 9.93288 32.9834 9.96381 33.1015 10.0397C33.2449 10.1297 33.3434 10.2759 33.3715 10.4447L34.5328 17.3875C34.5722 17.6152 34.2825 17.7446 34.1363 17.5674Z" fill="#FBE4BB"/>
<path d="M41.811 10.5516C41.4258 10.5995 41.2936 10.3942 41.0406 10.2283C40.9759 10.1861 39.8595 9.67431 39.8314 9.60119C39.7836 9.47184 39.6796 8.51295 39.6655 8.13052C39.6402 7.40222 39.5868 7.03104 39.702 6.36178C39.7442 6.11714 39.9832 5.95686 40.2251 6.01029L42.2722 6.44896C42.3678 6.46864 42.4325 6.56144 42.4184 6.65985L41.8082 10.5545L41.811 10.5516Z" fill="#FBE4BB"/>
<path d="M45.16 20.3576L41.7687 19.9386C41.4425 19.8992 41.2232 19.5843 41.2963 19.2637L44.0521 7.36621C44.1167 7.09063 44.3783 6.90504 44.6595 6.9416L48.0507 7.36058C48.3769 7.39995 48.5963 7.7149 48.5231 8.03546L45.7674 19.933C45.7027 20.2086 45.4412 20.3942 45.16 20.3576Z" fill="#FBE4BB"/>
</g>
</g>
<defs>
<filter id="filter0_g_1759_565" x="0.266992" y="5.6" width="52.8" height="43.5031" filterUnits="userSpaceOnUse" color-interpolation-filters="sRGB">
<feFlood flood-opacity="0" result="BackgroundImageFix"/>
<feBlend mode="normal" in="SourceGraphic" in2="BackgroundImageFix" result="shape"/>
<feTurbulence type="fractalNoise" baseFrequency="0.25 0.25" numOctaves="3" seed="8842" />
<feDisplacementMap in="shape" scale="0.80000001192092896" xChannelSelector="R" yChannelSelector="G" result="displacedImage" width="100%" height="100%" />
<feMerge result="effect1_texture_1759_565">
<feMergeNode in="displacedImage"/>
</feMerge>
</filter>
<clipPath id="clip0_1759_565">
<rect width="54" height="54" fill="white"/>
</clipPath>
</defs>
</svg>
