<svg width="40" height="40" viewBox="0 0 40 40" fill="none" xmlns="http://www.w3.org/2000/svg">
<rect width="40" height="40" rx="12" fill="#FFCEBB"/>
<g clip-path="url(#clip0_1220_15468)">
<path d="M9 20C9.58348 20 10.1431 20.2318 10.5556 20.6444C10.9682 21.0569 11.2 21.6165 11.2 22.2V25.5C11.2 26.0835 11.4318 26.6431 11.8444 27.0556C12.2569 27.4682 12.8165 27.7 13.4 27.7C13.9835 27.7 14.5431 27.4682 14.9556 27.0556C15.3682 26.6431 15.6 26.0835 15.6 25.5V11.2C15.6 10.6165 15.8318 10.0569 16.2444 9.64436C16.6569 9.23178 17.2165 9 17.8 9C18.3835 9 18.9431 9.23178 19.3556 9.64436C19.7682 10.0569 20 10.6165 20 11.2V28.8C20 29.3835 20.2318 29.9431 20.6444 30.3556C21.0569 30.7682 21.6165 31 22.2 31C22.7835 31 23.3431 30.7682 23.7556 30.3556C24.1682 29.9431 24.4 29.3835 24.4 28.8V14.5C24.4 13.9165 24.6318 13.3569 25.0444 12.9444C25.4569 12.5318 26.0165 12.3 26.6 12.3C27.1835 12.3 27.7431 12.5318 28.1556 12.9444C28.5682 13.3569 28.8 13.9165 28.8 14.5V17.8C28.8 18.3835 29.0318 18.9431 29.4444 19.3556C29.8569 19.7682 30.4165 20 31 20" stroke="white" stroke-width="2" stroke-linecap="round" stroke-linejoin="round"/>
</g>
<defs>
<clipPath id="clip0_1220_15468">
<rect width="24" height="24" fill="white" transform="translate(8 8)"/>
</clipPath>
</defs>
</svg>
