<svg width="40" height="40" viewBox="0 0 40 40" fill="none" xmlns="http://www.w3.org/2000/svg">
<rect width="40" height="40" rx="12" fill="#FF7675"/>
<g clip-path="url(#clip0_1158_6609)">
<path d="M20.8556 25.6556C21.0852 25.4252 21.2 25.14 21.2 24.8C21.2 24.46 21.0848 24.1752 20.8544 23.9456C20.624 23.716 20.3392 23.6008 20 23.6C19.6608 23.5992 19.376 23.7144 19.1456 23.9456C18.9152 24.1768 18.8 24.4616 18.8 24.8C18.8 25.1384 18.9152 25.4236 19.1456 25.6556C19.376 25.8876 19.6608 26.0024 20 26C20.3392 25.9976 20.6244 25.8836 20.8556 25.6556ZM20.8556 20.8544C21.0852 20.6248 21.2 20.34 21.2 20V15.2C21.2 14.86 21.0848 14.5752 20.8544 14.3456C20.624 14.116 20.3392 14.0008 20 14C19.6608 13.9992 19.376 14.1144 19.1456 14.3456C18.9152 14.5768 18.8 14.8616 18.8 15.2V20C18.8 20.34 18.9152 20.6252 19.1456 20.8556C19.376 21.086 19.6608 21.2008 20 21.2C20.3392 21.1992 20.6244 21.084 20.8556 20.8544ZM20 32C18.34 32 16.78 31.6848 15.32 31.0544C13.86 30.424 12.59 29.5692 11.51 28.49C10.43 27.4108 9.5752 26.1408 8.9456 24.68C8.316 23.2192 8.0008 21.6592 8 20C7.9992 18.3408 8.3144 16.7808 8.9456 15.32C9.5768 13.8592 10.4316 12.5892 11.51 11.51C12.5884 10.4308 13.8584 9.576 15.32 8.9456C16.7816 8.3152 18.3416 8 20 8C21.6584 8 23.2184 8.3152 24.68 8.9456C26.1416 9.576 27.4116 10.4308 28.49 11.51C29.5684 12.5892 30.4236 13.8592 31.0556 15.32C31.6876 16.7808 32.0024 18.3408 32 20C31.9976 21.6592 31.6824 23.2192 31.0544 24.68C30.4264 26.1408 29.5716 27.4108 28.49 28.49C27.4084 29.5692 26.1384 30.4244 24.68 31.0556C23.2216 31.6868 21.6616 32.0016 20 32Z" fill="white"/>
</g>
<defs>
<clipPath id="clip0_1158_6609">
<rect width="24" height="24" fill="white" transform="translate(8 8)"/>
</clipPath>
</defs>
</svg>
