<svg width="10" height="10" viewBox="0 0 10 10" fill="none" xmlns="http://www.w3.org/2000/svg">
<path d="M4.1665 0.833393C4.1665 0.466726 4.6065 0.278809 4.8715 0.532559C5.68734 1.31423 6.1615 3.03048 5.60067 4.33256L5.56734 4.40506L5.57234 4.40631C5.83275 4.46173 6.07359 4.22714 6.53192 3.50089L6.59025 3.40756C6.62406 3.35314 6.66996 3.30725 6.72439 3.27345C6.77882 3.23966 6.84031 3.21887 6.90407 3.2127C6.96784 3.20653 7.03218 3.21515 7.09207 3.23789C7.15197 3.26063 7.20581 3.29688 7.24942 3.34381C7.80525 3.94173 8.33317 5.16756 8.33317 5.95631C8.33317 7.73339 6.83692 9.16673 4.99984 9.16673C3.16275 9.16673 1.6665 7.73339 1.6665 5.95589C1.6665 5.01756 2.09234 3.99089 2.76317 3.33048L3.01525 3.08506C3.11567 2.98673 3.19609 2.90589 3.27275 2.82506C3.86859 2.19506 4.1665 1.60673 4.1665 0.833393Z" fill="#FF8253"/>
</svg>
